<mxfile host="app.diagrams.net" modified="2021-04-06T02:48:18.668Z" agent="5.0 (Macintosh; Intel Mac OS X 10_15_6) AppleWebKit/605.1.15 (KHTML, like Gecko) Version/14.0.3 Safari/605.1.15" etag="h2C5WiVb1l3-DMg2J9RH" version="14.5.7" type="github" pages="2">
  <diagram id="C5RBs43oDa-KdzZeNtuy" name="Page-1">
    <mxGraphModel dx="946" dy="645" grid="1" gridSize="10" guides="1" tooltips="1" connect="1" arrows="1" fold="1" page="1" pageScale="1" pageWidth="827" pageHeight="1169" math="0" shadow="0">
      <root>
        <mxCell id="WIyWlLk6GJQsqaUBKTNV-0" />
        <mxCell id="WIyWlLk6GJQsqaUBKTNV-1" parent="WIyWlLk6GJQsqaUBKTNV-0" />
        <mxCell id="4KxiVHnCPQQly1Mv4eUa-27" style="edgeStyle=orthogonalEdgeStyle;rounded=0;orthogonalLoop=1;jettySize=auto;html=1;entryX=0.5;entryY=0;entryDx=0;entryDy=0;" parent="WIyWlLk6GJQsqaUBKTNV-1" source="4KxiVHnCPQQly1Mv4eUa-0" target="4KxiVHnCPQQly1Mv4eUa-1" edge="1">
          <mxGeometry relative="1" as="geometry" />
        </mxCell>
        <mxCell id="4KxiVHnCPQQly1Mv4eUa-0" value="Inicio" style="ellipse;whiteSpace=wrap;html=1;fillColor=#e1d5e7;strokeColor=#9673a6;" parent="WIyWlLk6GJQsqaUBKTNV-1" vertex="1">
          <mxGeometry x="160" y="70" width="120" height="50" as="geometry" />
        </mxCell>
        <mxCell id="4KxiVHnCPQQly1Mv4eUa-16" style="edgeStyle=orthogonalEdgeStyle;rounded=0;orthogonalLoop=1;jettySize=auto;html=1;exitX=0.5;exitY=1;exitDx=0;exitDy=0;entryX=0.5;entryY=0;entryDx=0;entryDy=0;" parent="WIyWlLk6GJQsqaUBKTNV-1" source="4KxiVHnCPQQly1Mv4eUa-1" edge="1">
          <mxGeometry relative="1" as="geometry">
            <mxPoint x="220" y="240" as="targetPoint" />
          </mxGeometry>
        </mxCell>
        <mxCell id="4KxiVHnCPQQly1Mv4eUa-1" value="s = 0&lt;br&gt;q = 0" style="whiteSpace=wrap;html=1;aspect=fixed;fillColor=#f8cecc;strokeColor=#b85450;" parent="WIyWlLk6GJQsqaUBKTNV-1" vertex="1">
          <mxGeometry x="180" y="140" width="80" height="80" as="geometry" />
        </mxCell>
        <mxCell id="4KxiVHnCPQQly1Mv4eUa-17" style="edgeStyle=orthogonalEdgeStyle;rounded=0;orthogonalLoop=1;jettySize=auto;html=1;entryX=0.5;entryY=0;entryDx=0;entryDy=0;" parent="WIyWlLk6GJQsqaUBKTNV-1" target="4KxiVHnCPQQly1Mv4eUa-4" edge="1">
          <mxGeometry relative="1" as="geometry">
            <mxPoint x="220" y="300" as="sourcePoint" />
          </mxGeometry>
        </mxCell>
        <mxCell id="4KxiVHnCPQQly1Mv4eUa-18" style="edgeStyle=orthogonalEdgeStyle;rounded=0;orthogonalLoop=1;jettySize=auto;html=1;entryX=0.5;entryY=0;entryDx=0;entryDy=0;" parent="WIyWlLk6GJQsqaUBKTNV-1" source="4KxiVHnCPQQly1Mv4eUa-4" target="4KxiVHnCPQQly1Mv4eUa-6" edge="1">
          <mxGeometry relative="1" as="geometry" />
        </mxCell>
        <mxCell id="4KxiVHnCPQQly1Mv4eUa-4" value="Leer n" style="shape=parallelogram;perimeter=parallelogramPerimeter;whiteSpace=wrap;html=1;fixedSize=1;fillColor=#dae8fc;strokeColor=#6c8ebf;" parent="WIyWlLk6GJQsqaUBKTNV-1" vertex="1">
          <mxGeometry x="160" y="330" width="120" height="50" as="geometry" />
        </mxCell>
        <mxCell id="4KxiVHnCPQQly1Mv4eUa-19" style="edgeStyle=orthogonalEdgeStyle;rounded=0;orthogonalLoop=1;jettySize=auto;html=1;exitX=0.5;exitY=1;exitDx=0;exitDy=0;entryX=0.5;entryY=0;entryDx=0;entryDy=0;" parent="WIyWlLk6GJQsqaUBKTNV-1" source="4KxiVHnCPQQly1Mv4eUa-6" target="4KxiVHnCPQQly1Mv4eUa-7" edge="1">
          <mxGeometry relative="1" as="geometry" />
        </mxCell>
        <mxCell id="4KxiVHnCPQQly1Mv4eUa-6" value="i = i + 1" style="rounded=0;whiteSpace=wrap;html=1;fillColor=#f8cecc;strokeColor=#b85450;" parent="WIyWlLk6GJQsqaUBKTNV-1" vertex="1">
          <mxGeometry x="175" y="410" width="90" height="30" as="geometry" />
        </mxCell>
        <mxCell id="4KxiVHnCPQQly1Mv4eUa-14" value="Si" style="edgeStyle=orthogonalEdgeStyle;rounded=0;orthogonalLoop=1;jettySize=auto;html=1;exitX=1;exitY=0.5;exitDx=0;exitDy=0;entryX=0.5;entryY=0;entryDx=0;entryDy=0;" parent="WIyWlLk6GJQsqaUBKTNV-1" source="4KxiVHnCPQQly1Mv4eUa-7" target="4KxiVHnCPQQly1Mv4eUa-8" edge="1">
          <mxGeometry relative="1" as="geometry" />
        </mxCell>
        <mxCell id="4KxiVHnCPQQly1Mv4eUa-21" value="No" style="edgeStyle=orthogonalEdgeStyle;rounded=0;orthogonalLoop=1;jettySize=auto;html=1;entryX=0.5;entryY=0;entryDx=0;entryDy=0;" parent="WIyWlLk6GJQsqaUBKTNV-1" source="4KxiVHnCPQQly1Mv4eUa-7" target="4KxiVHnCPQQly1Mv4eUa-11" edge="1">
          <mxGeometry relative="1" as="geometry">
            <Array as="points">
              <mxPoint x="100" y="500" />
              <mxPoint x="100" y="620" />
              <mxPoint x="220" y="620" />
            </Array>
          </mxGeometry>
        </mxCell>
        <mxCell id="4KxiVHnCPQQly1Mv4eUa-7" value="n mod 2 = 1" style="rhombus;whiteSpace=wrap;html=1;fillColor=#fff2cc;strokeColor=#d6b656;" parent="WIyWlLk6GJQsqaUBKTNV-1" vertex="1">
          <mxGeometry x="175" y="460" width="80" height="80" as="geometry" />
        </mxCell>
        <mxCell id="4KxiVHnCPQQly1Mv4eUa-20" style="edgeStyle=orthogonalEdgeStyle;rounded=0;orthogonalLoop=1;jettySize=auto;html=1;entryX=0.5;entryY=0;entryDx=0;entryDy=0;" parent="WIyWlLk6GJQsqaUBKTNV-1" source="4KxiVHnCPQQly1Mv4eUa-8" target="4KxiVHnCPQQly1Mv4eUa-11" edge="1">
          <mxGeometry relative="1" as="geometry" />
        </mxCell>
        <mxCell id="4KxiVHnCPQQly1Mv4eUa-8" value="s = s + n&lt;br&gt;q = q + 1" style="rounded=0;whiteSpace=wrap;html=1;fillColor=#f8cecc;strokeColor=#b85450;" parent="WIyWlLk6GJQsqaUBKTNV-1" vertex="1">
          <mxGeometry x="270" y="540" width="120" height="50" as="geometry" />
        </mxCell>
        <mxCell id="4KxiVHnCPQQly1Mv4eUa-29" style="edgeStyle=orthogonalEdgeStyle;rounded=0;orthogonalLoop=1;jettySize=auto;html=1;" parent="WIyWlLk6GJQsqaUBKTNV-1" source="4KxiVHnCPQQly1Mv4eUa-11" target="4KxiVHnCPQQly1Mv4eUa-28" edge="1">
          <mxGeometry relative="1" as="geometry" />
        </mxCell>
        <mxCell id="4KxiVHnCPQQly1Mv4eUa-11" value="&quot;La cantidad de números impares es: &quot; , q&amp;nbsp;" style="shape=document;whiteSpace=wrap;html=1;boundedLbl=1;fillColor=#f5f5f5;strokeColor=#666666;fontColor=#333333;" parent="WIyWlLk6GJQsqaUBKTNV-1" vertex="1">
          <mxGeometry x="145" y="650" width="150" height="70" as="geometry" />
        </mxCell>
        <mxCell id="4KxiVHnCPQQly1Mv4eUa-23" value="" style="endArrow=none;html=1;" parent="WIyWlLk6GJQsqaUBKTNV-1" edge="1">
          <mxGeometry width="50" height="50" relative="1" as="geometry">
            <mxPoint x="60" y="630" as="sourcePoint" />
            <mxPoint x="220" y="630" as="targetPoint" />
          </mxGeometry>
        </mxCell>
        <mxCell id="4KxiVHnCPQQly1Mv4eUa-24" value="" style="endArrow=none;html=1;" parent="WIyWlLk6GJQsqaUBKTNV-1" edge="1">
          <mxGeometry width="50" height="50" relative="1" as="geometry">
            <mxPoint x="60" y="630" as="sourcePoint" />
            <mxPoint x="60" y="310" as="targetPoint" />
          </mxGeometry>
        </mxCell>
        <mxCell id="4KxiVHnCPQQly1Mv4eUa-25" value="" style="endArrow=classic;html=1;" parent="WIyWlLk6GJQsqaUBKTNV-1" edge="1">
          <mxGeometry width="50" height="50" relative="1" as="geometry">
            <mxPoint x="60" y="310" as="sourcePoint" />
            <mxPoint x="220" y="310" as="targetPoint" />
          </mxGeometry>
        </mxCell>
        <mxCell id="4KxiVHnCPQQly1Mv4eUa-26" style="edgeStyle=orthogonalEdgeStyle;rounded=0;orthogonalLoop=1;jettySize=auto;html=1;exitX=0.5;exitY=1;exitDx=0;exitDy=0;" parent="WIyWlLk6GJQsqaUBKTNV-1" source="4KxiVHnCPQQly1Mv4eUa-0" target="4KxiVHnCPQQly1Mv4eUa-0" edge="1">
          <mxGeometry relative="1" as="geometry" />
        </mxCell>
        <mxCell id="4KxiVHnCPQQly1Mv4eUa-28" value="Fin" style="ellipse;whiteSpace=wrap;html=1;fillColor=#e1d5e7;strokeColor=#9673a6;" parent="WIyWlLk6GJQsqaUBKTNV-1" vertex="1">
          <mxGeometry x="160" y="740" width="120" height="50" as="geometry" />
        </mxCell>
        <mxCell id="uFHQP3v6mptRgk7akU65-0" value="&lt;span style=&quot;color: rgb(51, 51, 51); font-family: helvetica; font-size: 12px; font-style: normal; font-weight: normal; letter-spacing: normal; text-align: center; text-indent: 0px; text-transform: none; word-spacing: 0px; background-color: rgb(248, 249, 250); text-decoration: none; display: inline; float: none;&quot;&gt;&quot;Ingrese diez números:&quot;&lt;/span&gt;" style="strokeWidth=2;html=1;shape=mxgraph.flowchart.display;whiteSpace=wrap;fillColor=#f5f5f5;strokeColor=#666666;fontColor=#333333;" vertex="1" parent="WIyWlLk6GJQsqaUBKTNV-1">
          <mxGeometry x="160" y="240" width="100" height="60" as="geometry" />
        </mxCell>
      </root>
    </mxGraphModel>
  </diagram>
  <diagram id="DNkHhsO0uGs_Lw6oN6wd" name="Page-2">
    <mxGraphModel dx="1113" dy="759" grid="1" gridSize="10" guides="1" tooltips="1" connect="1" arrows="1" fold="1" page="1" pageScale="1" pageWidth="850" pageHeight="1100" math="0" shadow="0">
      <root>
        <mxCell id="3Vgc__eGnddHLk6463Jd-0" />
        <mxCell id="3Vgc__eGnddHLk6463Jd-1" parent="3Vgc__eGnddHLk6463Jd-0" />
        <mxCell id="dzeLCDdMSoWjSDDqNkzB-0" style="edgeStyle=orthogonalEdgeStyle;rounded=0;orthogonalLoop=1;jettySize=auto;html=1;entryX=0.5;entryY=0;entryDx=0;entryDy=0;" parent="3Vgc__eGnddHLk6463Jd-1" source="dzeLCDdMSoWjSDDqNkzB-1" target="dzeLCDdMSoWjSDDqNkzB-3" edge="1">
          <mxGeometry relative="1" as="geometry" />
        </mxCell>
        <mxCell id="dzeLCDdMSoWjSDDqNkzB-1" value="Inicio" style="ellipse;whiteSpace=wrap;html=1;fillColor=#e1d5e7;strokeColor=#9673a6;" parent="3Vgc__eGnddHLk6463Jd-1" vertex="1">
          <mxGeometry x="147.5" y="70" width="120" height="50" as="geometry" />
        </mxCell>
        <mxCell id="dzeLCDdMSoWjSDDqNkzB-2" style="edgeStyle=orthogonalEdgeStyle;rounded=0;orthogonalLoop=1;jettySize=auto;html=1;exitX=0.5;exitY=1;exitDx=0;exitDy=0;entryX=0.5;entryY=0;entryDx=0;entryDy=0;" parent="3Vgc__eGnddHLk6463Jd-1" source="dzeLCDdMSoWjSDDqNkzB-3" edge="1">
          <mxGeometry relative="1" as="geometry">
            <mxPoint x="207.5" y="240" as="targetPoint" />
          </mxGeometry>
        </mxCell>
        <mxCell id="dzeLCDdMSoWjSDDqNkzB-3" value="sum_p = 0&lt;br&gt;sum_no_p = 0" style="whiteSpace=wrap;html=1;aspect=fixed;fillColor=#f8cecc;strokeColor=#b85450;" parent="3Vgc__eGnddHLk6463Jd-1" vertex="1">
          <mxGeometry x="167.5" y="140" width="80" height="80" as="geometry" />
        </mxCell>
        <mxCell id="dzeLCDdMSoWjSDDqNkzB-4" style="edgeStyle=orthogonalEdgeStyle;rounded=0;orthogonalLoop=1;jettySize=auto;html=1;entryX=0.5;entryY=0;entryDx=0;entryDy=0;" parent="3Vgc__eGnddHLk6463Jd-1" target="dzeLCDdMSoWjSDDqNkzB-7" edge="1">
          <mxGeometry relative="1" as="geometry">
            <mxPoint x="207.47058823529437" y="300" as="sourcePoint" />
          </mxGeometry>
        </mxCell>
        <mxCell id="tp6mx0bzVdwBOkvTgqPS-12" style="edgeStyle=orthogonalEdgeStyle;rounded=0;orthogonalLoop=1;jettySize=auto;html=1;exitX=0.5;exitY=1;exitDx=0;exitDy=0;entryX=0.5;entryY=0;entryDx=0;entryDy=0;" edge="1" parent="3Vgc__eGnddHLk6463Jd-1" source="dzeLCDdMSoWjSDDqNkzB-7" target="15acp5fOrBg01ViFC_vS-0">
          <mxGeometry relative="1" as="geometry" />
        </mxCell>
        <mxCell id="dzeLCDdMSoWjSDDqNkzB-7" value="Leer n" style="shape=parallelogram;perimeter=parallelogramPerimeter;whiteSpace=wrap;html=1;fixedSize=1;fillColor=#d5e8d4;strokeColor=#82b366;" parent="3Vgc__eGnddHLk6463Jd-1" vertex="1">
          <mxGeometry x="147.5" y="330" width="120" height="50" as="geometry" />
        </mxCell>
        <mxCell id="tp6mx0bzVdwBOkvTgqPS-10" style="edgeStyle=orthogonalEdgeStyle;rounded=0;orthogonalLoop=1;jettySize=auto;html=1;exitX=0.5;exitY=1;exitDx=0;exitDy=0;" edge="1" parent="3Vgc__eGnddHLk6463Jd-1" source="dzeLCDdMSoWjSDDqNkzB-14" target="tp6mx0bzVdwBOkvTgqPS-1">
          <mxGeometry relative="1" as="geometry" />
        </mxCell>
        <mxCell id="dzeLCDdMSoWjSDDqNkzB-14" value="sum_p = sum_p + I&lt;br&gt;sum_t = sum_no_p-n&amp;nbsp;" style="rounded=0;whiteSpace=wrap;html=1;fillColor=#f8cecc;strokeColor=#b85450;" parent="3Vgc__eGnddHLk6463Jd-1" vertex="1">
          <mxGeometry x="255" y="580" width="120" height="50" as="geometry" />
        </mxCell>
        <mxCell id="dzeLCDdMSoWjSDDqNkzB-20" style="edgeStyle=orthogonalEdgeStyle;rounded=0;orthogonalLoop=1;jettySize=auto;html=1;exitX=0.5;exitY=1;exitDx=0;exitDy=0;" parent="3Vgc__eGnddHLk6463Jd-1" source="dzeLCDdMSoWjSDDqNkzB-1" target="dzeLCDdMSoWjSDDqNkzB-1" edge="1">
          <mxGeometry relative="1" as="geometry" />
        </mxCell>
        <mxCell id="dzeLCDdMSoWjSDDqNkzB-21" value="Fin" style="ellipse;whiteSpace=wrap;html=1;fillColor=#e1d5e7;strokeColor=#9673a6;" parent="3Vgc__eGnddHLk6463Jd-1" vertex="1">
          <mxGeometry x="140" y="880" width="120" height="50" as="geometry" />
        </mxCell>
        <mxCell id="tp6mx0bzVdwBOkvTgqPS-14" style="edgeStyle=orthogonalEdgeStyle;rounded=0;orthogonalLoop=1;jettySize=auto;html=1;" edge="1" parent="3Vgc__eGnddHLk6463Jd-1" source="15acp5fOrBg01ViFC_vS-0" target="tp6mx0bzVdwBOkvTgqPS-0">
          <mxGeometry relative="1" as="geometry">
            <Array as="points">
              <mxPoint x="205" y="460" />
              <mxPoint x="205" y="460" />
            </Array>
          </mxGeometry>
        </mxCell>
        <mxCell id="15acp5fOrBg01ViFC_vS-0" value="Para &amp;nbsp;i = 1; n; 1" style="rounded=0;whiteSpace=wrap;html=1;fillColor=#f8cecc;strokeColor=#b85450;" vertex="1" parent="3Vgc__eGnddHLk6463Jd-1">
          <mxGeometry x="142.5" y="400" width="120" height="60" as="geometry" />
        </mxCell>
        <mxCell id="tp6mx0bzVdwBOkvTgqPS-9" value="Si" style="edgeStyle=orthogonalEdgeStyle;rounded=0;orthogonalLoop=1;jettySize=auto;html=1;entryX=0.5;entryY=0;entryDx=0;entryDy=0;" edge="1" parent="3Vgc__eGnddHLk6463Jd-1" source="tp6mx0bzVdwBOkvTgqPS-0" target="dzeLCDdMSoWjSDDqNkzB-14">
          <mxGeometry relative="1" as="geometry">
            <Array as="points">
              <mxPoint x="315" y="530" />
            </Array>
          </mxGeometry>
        </mxCell>
        <mxCell id="tp6mx0bzVdwBOkvTgqPS-11" value="No" style="edgeStyle=orthogonalEdgeStyle;rounded=0;orthogonalLoop=1;jettySize=auto;html=1;" edge="1" parent="3Vgc__eGnddHLk6463Jd-1" source="tp6mx0bzVdwBOkvTgqPS-0">
          <mxGeometry relative="1" as="geometry">
            <mxPoint x="205" y="670" as="targetPoint" />
            <Array as="points">
              <mxPoint x="70" y="530" />
              <mxPoint x="70" y="650" />
              <mxPoint x="205" y="650" />
            </Array>
          </mxGeometry>
        </mxCell>
        <mxCell id="tp6mx0bzVdwBOkvTgqPS-0" value="n mod i = 0" style="strokeWidth=2;html=1;shape=mxgraph.flowchart.decision;whiteSpace=wrap;fillColor=#fff2cc;strokeColor=#d6b656;" vertex="1" parent="3Vgc__eGnddHLk6463Jd-1">
          <mxGeometry x="155" y="480" width="100" height="100" as="geometry" />
        </mxCell>
        <mxCell id="tp6mx0bzVdwBOkvTgqPS-4" value="No" style="edgeStyle=orthogonalEdgeStyle;rounded=0;orthogonalLoop=1;jettySize=auto;html=1;" edge="1" parent="3Vgc__eGnddHLk6463Jd-1" source="tp6mx0bzVdwBOkvTgqPS-1" target="tp6mx0bzVdwBOkvTgqPS-2">
          <mxGeometry relative="1" as="geometry" />
        </mxCell>
        <mxCell id="tp6mx0bzVdwBOkvTgqPS-5" value="Si" style="edgeStyle=orthogonalEdgeStyle;rounded=0;orthogonalLoop=1;jettySize=auto;html=1;" edge="1" parent="3Vgc__eGnddHLk6463Jd-1" source="tp6mx0bzVdwBOkvTgqPS-1" target="tp6mx0bzVdwBOkvTgqPS-3">
          <mxGeometry relative="1" as="geometry" />
        </mxCell>
        <mxCell id="tp6mx0bzVdwBOkvTgqPS-1" value="sum_t = n" style="strokeWidth=2;html=1;shape=mxgraph.flowchart.decision;whiteSpace=wrap;fillColor=#fff2cc;strokeColor=#d6b656;" vertex="1" parent="3Vgc__eGnddHLk6463Jd-1">
          <mxGeometry x="160" y="670" width="95" height="100" as="geometry" />
        </mxCell>
        <mxCell id="tp6mx0bzVdwBOkvTgqPS-6" style="edgeStyle=orthogonalEdgeStyle;rounded=0;orthogonalLoop=1;jettySize=auto;html=1;" edge="1" parent="3Vgc__eGnddHLk6463Jd-1" source="tp6mx0bzVdwBOkvTgqPS-2" target="dzeLCDdMSoWjSDDqNkzB-21">
          <mxGeometry relative="1" as="geometry" />
        </mxCell>
        <mxCell id="tp6mx0bzVdwBOkvTgqPS-2" value="&lt;span&gt;n; &quot; NO es un nro perfecto&quot;&lt;/span&gt;" style="strokeWidth=2;html=1;shape=mxgraph.flowchart.display;whiteSpace=wrap;fillColor=#f5f5f5;strokeColor=#666666;fontColor=#333333;" vertex="1" parent="3Vgc__eGnddHLk6463Jd-1">
          <mxGeometry x="50" y="780" width="100" height="60" as="geometry" />
        </mxCell>
        <mxCell id="tp6mx0bzVdwBOkvTgqPS-8" style="edgeStyle=orthogonalEdgeStyle;rounded=0;orthogonalLoop=1;jettySize=auto;html=1;entryX=0.5;entryY=0;entryDx=0;entryDy=0;" edge="1" parent="3Vgc__eGnddHLk6463Jd-1" source="tp6mx0bzVdwBOkvTgqPS-3" target="dzeLCDdMSoWjSDDqNkzB-21">
          <mxGeometry relative="1" as="geometry">
            <Array as="points">
              <mxPoint x="315" y="860" />
              <mxPoint x="200" y="860" />
            </Array>
          </mxGeometry>
        </mxCell>
        <mxCell id="tp6mx0bzVdwBOkvTgqPS-3" value="n; &quot; es un nro perfecto&quot;" style="strokeWidth=2;html=1;shape=mxgraph.flowchart.display;whiteSpace=wrap;fillColor=#f5f5f5;strokeColor=#666666;fontColor=#333333;" vertex="1" parent="3Vgc__eGnddHLk6463Jd-1">
          <mxGeometry x="265" y="780" width="100" height="60" as="geometry" />
        </mxCell>
        <mxCell id="tp6mx0bzVdwBOkvTgqPS-18" value="" style="endArrow=none;html=1;" edge="1" parent="3Vgc__eGnddHLk6463Jd-1">
          <mxGeometry width="50" height="50" relative="1" as="geometry">
            <mxPoint x="20" y="660" as="sourcePoint" />
            <mxPoint x="20" y="470" as="targetPoint" />
          </mxGeometry>
        </mxCell>
        <mxCell id="tp6mx0bzVdwBOkvTgqPS-19" value="" style="endArrow=none;html=1;" edge="1" parent="3Vgc__eGnddHLk6463Jd-1">
          <mxGeometry width="50" height="50" relative="1" as="geometry">
            <mxPoint x="20" y="470" as="sourcePoint" />
            <mxPoint x="200" y="470" as="targetPoint" />
          </mxGeometry>
        </mxCell>
        <mxCell id="tp6mx0bzVdwBOkvTgqPS-20" value="" style="endArrow=none;html=1;" edge="1" parent="3Vgc__eGnddHLk6463Jd-1">
          <mxGeometry width="50" height="50" relative="1" as="geometry">
            <mxPoint x="20" y="659.9999999999998" as="sourcePoint" />
            <mxPoint x="200" y="659.9999999999998" as="targetPoint" />
          </mxGeometry>
        </mxCell>
        <mxCell id="tp6mx0bzVdwBOkvTgqPS-21" value="&lt;span style=&quot;color: rgb(0, 0, 0); font-family: helvetica; font-size: 12px; font-style: normal; font-weight: normal; letter-spacing: normal; text-align: center; text-indent: 0px; text-transform: none; word-spacing: 0px; background-color: rgb(248, 249, 250); text-decoration: none; display: inline; float: none;&quot;&gt;&quot;Ingrese un número&quot;&lt;/span&gt;" style="strokeWidth=2;html=1;shape=mxgraph.flowchart.display;whiteSpace=wrap;fillColor=#f5f5f5;strokeColor=#666666;fontColor=#333333;" vertex="1" parent="3Vgc__eGnddHLk6463Jd-1">
          <mxGeometry x="150" y="240" width="100" height="60" as="geometry" />
        </mxCell>
      </root>
    </mxGraphModel>
  </diagram>
</mxfile>
